<mxfile host="app.diagrams.net" modified="2024-03-23T19:29:13.838Z" agent="Mozilla/5.0 (Windows NT 10.0; Win64; x64) AppleWebKit/537.36 (KHTML, like Gecko) Chrome/123.0.0.0 Safari/537.36" etag="DNTW9e18Qa65ALAmV6FQ" version="24.1.0" type="github">
  <diagram id="prtHgNgQTEPvFCAcTncT" name="Page-1">
    <mxGraphModel dx="1050" dy="570" grid="1" gridSize="10" guides="1" tooltips="1" connect="1" arrows="1" fold="1" page="1" pageScale="1" pageWidth="827" pageHeight="1169" math="0" shadow="0">
      <root>
        <mxCell id="0" />
        <mxCell id="1" parent="0" />
        <mxCell id="dNxyNK7c78bLwvsdeMH5-11" value="Pattern" style="swimlane;html=1;startSize=20;horizontal=1;containerType=tree;glass=0;" parent="1" vertex="1">
          <mxGeometry x="40" y="30" width="770" height="610" as="geometry" />
        </mxCell>
        <mxCell id="pm21eisazKqO7hi6Hl9B-33" style="edgeStyle=orthogonalEdgeStyle;rounded=0;orthogonalLoop=1;jettySize=auto;html=1;entryX=0.5;entryY=0;entryDx=0;entryDy=0;" edge="1" parent="dNxyNK7c78bLwvsdeMH5-11" source="dNxyNK7c78bLwvsdeMH5-12" target="pm21eisazKqO7hi6Hl9B-1">
          <mxGeometry relative="1" as="geometry" />
        </mxCell>
        <UserObject label="Client" name="Tessa Miller" position="CFO" location="Office 1" email="me@example.com" placeholders="1" link="https://www.draw.io" id="dNxyNK7c78bLwvsdeMH5-12">
          <mxCell style="label;image=https://cdn3.iconfinder.com/data/icons/user-avatars-1/512/users-3-128.png;whiteSpace=wrap;html=1;rounded=0;glass=0;treeMoving=1;treeFolding=1;" parent="dNxyNK7c78bLwvsdeMH5-11" vertex="1">
            <mxGeometry x="300" y="40" width="180" height="70" as="geometry" />
          </mxCell>
        </UserObject>
        <mxCell id="pm21eisazKqO7hi6Hl9B-12" style="edgeStyle=orthogonalEdgeStyle;rounded=0;orthogonalLoop=1;jettySize=auto;html=1;entryX=0.5;entryY=0;entryDx=0;entryDy=0;" edge="1" parent="dNxyNK7c78bLwvsdeMH5-11" source="pm21eisazKqO7hi6Hl9B-1" target="pm21eisazKqO7hi6Hl9B-9">
          <mxGeometry relative="1" as="geometry" />
        </mxCell>
        <mxCell id="pm21eisazKqO7hi6Hl9B-1" value="&lt;b&gt;&amp;nbsp; &amp;nbsp; &amp;nbsp; &amp;nbsp; &amp;nbsp; Routes&lt;/b&gt;" style="rounded=0;whiteSpace=wrap;html=1;" vertex="1" parent="dNxyNK7c78bLwvsdeMH5-11">
          <mxGeometry x="330" y="140" width="120" height="60" as="geometry" />
        </mxCell>
        <mxCell id="pm21eisazKqO7hi6Hl9B-23" style="edgeStyle=orthogonalEdgeStyle;rounded=0;orthogonalLoop=1;jettySize=auto;html=1;entryX=0.5;entryY=0;entryDx=0;entryDy=0;entryPerimeter=0;" edge="1" parent="dNxyNK7c78bLwvsdeMH5-11" source="pm21eisazKqO7hi6Hl9B-3" target="pm21eisazKqO7hi6Hl9B-39">
          <mxGeometry relative="1" as="geometry">
            <mxPoint x="645" y="360" as="targetPoint" />
          </mxGeometry>
        </mxCell>
        <mxCell id="pm21eisazKqO7hi6Hl9B-3" value="&lt;b&gt;&amp;nbsp; &amp;nbsp; &amp;nbsp; &amp;nbsp; &amp;nbsp; &amp;nbsp; &amp;nbsp; &amp;nbsp; &amp;nbsp; Controllers&lt;/b&gt;" style="rounded=0;whiteSpace=wrap;html=1;" vertex="1" parent="dNxyNK7c78bLwvsdeMH5-11">
          <mxGeometry x="560" y="230" width="150" height="75" as="geometry" />
        </mxCell>
        <mxCell id="pm21eisazKqO7hi6Hl9B-4" style="edgeStyle=orthogonalEdgeStyle;rounded=0;orthogonalLoop=1;jettySize=auto;html=1;entryX=0.56;entryY=0.017;entryDx=0;entryDy=0;entryPerimeter=0;" edge="1" parent="dNxyNK7c78bLwvsdeMH5-11" source="pm21eisazKqO7hi6Hl9B-1" target="pm21eisazKqO7hi6Hl9B-3">
          <mxGeometry relative="1" as="geometry" />
        </mxCell>
        <mxCell id="pm21eisazKqO7hi6Hl9B-6" value="&lt;b&gt;Controllers&lt;/b&gt;" style="rounded=0;whiteSpace=wrap;html=1;" vertex="1" parent="dNxyNK7c78bLwvsdeMH5-11">
          <mxGeometry x="50" y="245" width="120" height="60" as="geometry" />
        </mxCell>
        <mxCell id="pm21eisazKqO7hi6Hl9B-9" value="&lt;b&gt;&amp;nbsp; &amp;nbsp; &amp;nbsp; &amp;nbsp; &amp;nbsp; &amp;nbsp; &amp;nbsp; &amp;nbsp;Controllers&lt;/b&gt;" style="rounded=0;whiteSpace=wrap;html=1;" vertex="1" parent="dNxyNK7c78bLwvsdeMH5-11">
          <mxGeometry x="50" y="230" width="130" height="75" as="geometry" />
        </mxCell>
        <mxCell id="pm21eisazKqO7hi6Hl9B-13" style="edgeStyle=orthogonalEdgeStyle;rounded=0;orthogonalLoop=1;jettySize=auto;html=1;entryX=0.5;entryY=0;entryDx=0;entryDy=0;" edge="1" target="pm21eisazKqO7hi6Hl9B-14" source="pm21eisazKqO7hi6Hl9B-9" parent="dNxyNK7c78bLwvsdeMH5-11">
          <mxGeometry relative="1" as="geometry">
            <mxPoint x="370" y="190" as="sourcePoint" />
          </mxGeometry>
        </mxCell>
        <mxCell id="pm21eisazKqO7hi6Hl9B-14" value="&lt;b&gt;Services&lt;/b&gt;" style="rounded=0;whiteSpace=wrap;html=1;" vertex="1" parent="dNxyNK7c78bLwvsdeMH5-11">
          <mxGeometry x="50" y="345" width="120" height="75" as="geometry" />
        </mxCell>
        <mxCell id="pm21eisazKqO7hi6Hl9B-35" style="edgeStyle=orthogonalEdgeStyle;rounded=0;orthogonalLoop=1;jettySize=auto;html=1;entryX=0.5;entryY=0;entryDx=0;entryDy=0;" edge="1" parent="dNxyNK7c78bLwvsdeMH5-11" source="pm21eisazKqO7hi6Hl9B-24" target="pm21eisazKqO7hi6Hl9B-30">
          <mxGeometry relative="1" as="geometry" />
        </mxCell>
        <mxCell id="pm21eisazKqO7hi6Hl9B-24" value="&lt;b&gt;Services&lt;/b&gt;" style="rounded=0;whiteSpace=wrap;html=1;" vertex="1" parent="dNxyNK7c78bLwvsdeMH5-11">
          <mxGeometry x="590" y="352.5" width="120" height="60" as="geometry" />
        </mxCell>
        <mxCell id="pm21eisazKqO7hi6Hl9B-29" style="edgeStyle=orthogonalEdgeStyle;rounded=0;orthogonalLoop=1;jettySize=auto;html=1;entryX=0.5;entryY=0;entryDx=0;entryDy=0;" edge="1" target="pm21eisazKqO7hi6Hl9B-30" source="pm21eisazKqO7hi6Hl9B-14" parent="dNxyNK7c78bLwvsdeMH5-11">
          <mxGeometry relative="1" as="geometry">
            <mxPoint x="150" y="315" as="sourcePoint" />
          </mxGeometry>
        </mxCell>
        <mxCell id="pm21eisazKqO7hi6Hl9B-30" value="&lt;b&gt;&amp;nbsp; &amp;nbsp; &amp;nbsp; &amp;nbsp; &amp;nbsp; &amp;nbsp; &amp;nbsp; DB&lt;/b&gt;" style="rounded=0;whiteSpace=wrap;html=1;" vertex="1" parent="dNxyNK7c78bLwvsdeMH5-11">
          <mxGeometry x="330" y="490" width="120" height="75" as="geometry" />
        </mxCell>
        <mxCell id="pm21eisazKqO7hi6Hl9B-37" value="" style="image;aspect=fixed;perimeter=ellipsePerimeter;html=1;align=center;shadow=0;dashed=0;spacingTop=3;image=img/lib/active_directory/database.svg;" vertex="1" parent="dNxyNK7c78bLwvsdeMH5-11">
          <mxGeometry x="340" y="509" width="50" height="37" as="geometry" />
        </mxCell>
        <mxCell id="pm21eisazKqO7hi6Hl9B-38" value="Services" style="html=1;whiteSpace=wrap;strokeColor=none;fillColor=#0079D6;labelPosition=center;verticalLabelPosition=middle;verticalAlign=top;align=center;fontSize=12;outlineConnect=0;spacingTop=-6;fontColor=#FFFFFF;sketch=0;shape=mxgraph.sitemap.services;" vertex="1" parent="dNxyNK7c78bLwvsdeMH5-11">
          <mxGeometry x="50" y="345" width="120" height="75" as="geometry" />
        </mxCell>
        <mxCell id="pm21eisazKqO7hi6Hl9B-39" value="Services" style="html=1;whiteSpace=wrap;strokeColor=none;fillColor=#0079D6;labelPosition=center;verticalLabelPosition=middle;verticalAlign=top;align=center;fontSize=12;outlineConnect=0;spacingTop=-6;fontColor=#FFFFFF;sketch=0;shape=mxgraph.sitemap.services;" vertex="1" parent="dNxyNK7c78bLwvsdeMH5-11">
          <mxGeometry x="590" y="350" width="120" height="62.5" as="geometry" />
        </mxCell>
        <mxCell id="pm21eisazKqO7hi6Hl9B-40" value="" style="verticalLabelPosition=bottom;sketch=0;html=1;fillColor=#A153A0;strokeColor=#ffffff;verticalAlign=top;align=center;points=[[0,0.5,0],[0.125,0.25,0],[0.25,0,0],[0.5,0,0],[0.75,0,0],[0.875,0.25,0],[1,0.5,0],[0.875,0.75,0],[0.75,1,0],[0.5,1,0],[0.125,0.75,0]];pointerEvents=1;shape=mxgraph.cisco_safe.compositeIcon;bgIcon=mxgraph.cisco_safe.design.blank_device;resIcon=mxgraph.cisco_safe.design.aci_controller;" vertex="1" parent="dNxyNK7c78bLwvsdeMH5-11">
          <mxGeometry x="50" y="245" width="50" height="45" as="geometry" />
        </mxCell>
        <mxCell id="pm21eisazKqO7hi6Hl9B-41" value="" style="verticalLabelPosition=bottom;sketch=0;html=1;fillColor=#A153A0;strokeColor=#ffffff;verticalAlign=top;align=center;points=[[0,0.5,0],[0.125,0.25,0],[0.25,0,0],[0.5,0,0],[0.75,0,0],[0.875,0.25,0],[1,0.5,0],[0.875,0.75,0],[0.75,1,0],[0.5,1,0],[0.125,0.75,0]];pointerEvents=1;shape=mxgraph.cisco_safe.compositeIcon;bgIcon=mxgraph.cisco_safe.design.blank_device;resIcon=mxgraph.cisco_safe.design.aci_controller;" vertex="1" parent="dNxyNK7c78bLwvsdeMH5-11">
          <mxGeometry x="570" y="245" width="50" height="45" as="geometry" />
        </mxCell>
        <mxCell id="pm21eisazKqO7hi6Hl9B-42" value="" style="editableCssRules=.*;html=1;shape=image;verticalLabelPosition=bottom;labelBackgroundColor=#ffffff;verticalAlign=top;aspect=fixed;imageAspect=0;image=data:image/svg+xml,PHN2ZyB4bWxucz0iaHR0cDovL3d3dy53My5vcmcvMjAwMC9zdmciIHhtbG5zOnY9Imh0dHBzOi8vdmVjdGEuaW8vbmFubyIgd2lkdGg9IjIwIiBoZWlnaHQ9IjE5LjI5OTk5OTIzNzA2MDU0NyIgdmlld0JveD0iMCAwIDIwIDE5LjI5OTk5OTIzNzA2MDU0NyI+JiN4YTsJPHN0eWxlIHR5cGU9InRleHQvY3NzIj4mI3hhOwkuc3Qwe2ZpbGw6IzQyODVmNDt9JiN4YTsJLnN0MXtmaWxsOiM2NjlkZjY7fSYjeGE7CTwvc3R5bGU+JiN4YTsJPHBhdGggY2xhc3M9InN0MCIgZD0iTTIuNDMgNi4xSDBWMi42N2gzLjk0bDguNCAxMC40OWgyLjM0di0yLjcyTDIwIDE0Ljg3bC01LjMyIDQuNDN2LTIuNzFoLTMuODd6Ii8+JiN4YTsJPHBhdGggY2xhc3M9InN0MSIgZD0iTTE0LjY4IDYuMTR2Mi43MkwyMCA0LjQzIDE0LjY4IDB2Mi43MWgtMy44N0w4LjMzIDUuODJsMi4xMyAyLjY3IDEuODgtMi4zNXpNMCAxMy4ydjMuNDNoMy45NGwyLjUyLTMuMTUtMi4xMy0yLjY3LTEuOSAyLjM5eiIvPiYjeGE7PC9zdmc+;" vertex="1" parent="dNxyNK7c78bLwvsdeMH5-11">
          <mxGeometry x="340" y="151" width="40" height="38" as="geometry" />
        </mxCell>
      </root>
    </mxGraphModel>
  </diagram>
</mxfile>
